<svg viewBox="-1 -1 79 79" fill="currentColor" xmlns="http://www.w3.org/2000/svg">
  <circle cx="1" cy="1" r="1.5"></circle>
  <circle cx="1" cy="16" r="1.5"></circle>
  <circle cx="1" cy="31" r="1.5"></circle>
  <circle cx="1" cy="46" r="1.5"></circle>
  <circle cx="1" cy="61" r="1.5"></circle>
  <circle cx="1" cy="76" r="1.5"></circle>
  <circle cx="16" cy="1" r="1.5"></circle>
  <circle cx="16" cy="16" r="1.5"></circle>
  <circle cx="16" cy="31" r="1.5"></circle>
  <circle cx="16" cy="46" r="1.5"></circle>
  <circle cx="16" cy="61" r="1.5"></circle>
  <circle cx="16" cy="76" r="1.5"></circle>
  <circle cx="31" cy="1" r="1.5"></circle>
  <circle cx="31" cy="16" r="1.5"></circle>
  <circle cx="31" cy="31" r="1.5"></circle>
  <circle cx="31" cy="46" r="1.5"></circle>
  <circle cx="31" cy="61" r="1.5"></circle>
  <circle cx="31" cy="76" r="1.5"></circle>
  <circle cx="46" cy="1" r="1.5"></circle>
  <circle cx="46" cy="16" r="1.5"></circle>
  <circle cx="46" cy="31" r="1.5"></circle>
  <circle cx="46" cy="46" r="1.5"></circle>
  <circle cx="46" cy="61" r="1.5"></circle>
  <circle cx="46" cy="76" r="1.5"></circle>
  <circle cx="61" cy="1" r="1.5"></circle>
  <circle cx="61" cy="16" r="1.5"></circle>
  <circle cx="61" cy="31" r="1.5"></circle>
  <circle cx="61" cy="46" r="1.5"></circle>
  <circle cx="61" cy="61" r="1.5"></circle>
  <circle cx="61" cy="76" r="1.5"></circle>
  <circle cx="76" cy="1" r="1.5"></circle>
  <circle cx="76" cy="16" r="1.5"></circle>
  <circle cx="76" cy="31" r="1.5"></circle>
  <circle cx="76" cy="46" r="1.5"></circle>
  <circle cx="76" cy="61" r="1.5"></circle>
  <circle cx="76" cy="76" r="1.5"></circle>
</svg>
