<svg viewBox="-1 -1 124 124" fill="currentColor" xmlns="http://www.w3.org/2000/svg">
  <circle cx="1" cy="1" r="1.5"></circle>
  <circle cx="1" cy="16" r="1.5"></circle>
  <circle cx="1" cy="31" r="1.5"></circle>
  <circle cx="1" cy="46" r="1.5"></circle>
  <circle cx="1" cy="61" r="1.5"></circle>
  <circle cx="1" cy="76" r="1.5"></circle>
  <circle cx="1" cy="91" r="1.5"></circle>
  <circle cx="1" cy="106" r="1.5"></circle>
  <circle cx="1" cy="121" r="1.5"></circle>
  <circle cx="16" cy="1" r="1.5"></circle>
  <circle cx="16" cy="16" r="1.5"></circle>
  <circle cx="16" cy="31" r="1.5"></circle>
  <circle cx="16" cy="46" r="1.5"></circle>
  <circle cx="16" cy="61" r="1.5"></circle>
  <circle cx="16" cy="76" r="1.5"></circle>
  <circle cx="16" cy="91" r="1.5"></circle>
  <circle cx="16" cy="106" r="1.5"></circle>
  <circle cx="16" cy="121" r="1.5"></circle>
  <circle cx="31" cy="1" r="1.5"></circle>
  <circle cx="31" cy="16" r="1.5"></circle>
  <circle cx="31" cy="31" r="1.5"></circle>
  <circle cx="31" cy="46" r="1.5"></circle>
  <circle cx="31" cy="61" r="1.5"></circle>
  <circle cx="31" cy="76" r="1.5"></circle>
  <circle cx="31" cy="91" r="1.5"></circle>
  <circle cx="31" cy="106" r="1.5"></circle>
  <circle cx="31" cy="121" r="1.5"></circle>
  <circle cx="46" cy="1" r="1.5"></circle>
  <circle cx="46" cy="16" r="1.5"></circle>
  <circle cx="46" cy="31" r="1.5"></circle>
  <circle cx="46" cy="46" r="1.5"></circle>
  <circle cx="46" cy="61" r="1.5"></circle>
  <circle cx="46" cy="76" r="1.5"></circle>
  <circle cx="46" cy="91" r="1.5"></circle>
  <circle cx="46" cy="106" r="1.5"></circle>
  <circle cx="46" cy="121" r="1.5"></circle>
  <circle cx="61" cy="1" r="1.5"></circle>
  <circle cx="61" cy="16" r="1.5"></circle>
  <circle cx="61" cy="31" r="1.5"></circle>
  <circle cx="61" cy="46" r="1.5"></circle>
  <circle cx="61" cy="61" r="1.5"></circle>
  <circle cx="61" cy="76" r="1.5"></circle>
  <circle cx="61" cy="91" r="1.5"></circle>
  <circle cx="61" cy="106" r="1.5"></circle>
  <circle cx="61" cy="121" r="1.5"></circle>
  <circle cx="76" cy="1" r="1.5"></circle>
  <circle cx="76" cy="16" r="1.5"></circle>
  <circle cx="76" cy="31" r="1.5"></circle>
  <circle cx="76" cy="46" r="1.5"></circle>
  <circle cx="76" cy="61" r="1.5"></circle>
  <circle cx="76" cy="76" r="1.5"></circle>
  <circle cx="76" cy="91" r="1.5"></circle>
  <circle cx="76" cy="106" r="1.5"></circle>
  <circle cx="76" cy="121" r="1.5"></circle>
  <circle cx="91" cy="1" r="1.5"></circle>
  <circle cx="91" cy="16" r="1.5"></circle>
  <circle cx="91" cy="31" r="1.5"></circle>
  <circle cx="91" cy="46" r="1.5"></circle>
  <circle cx="91" cy="61" r="1.5"></circle>
  <circle cx="91" cy="76" r="1.5"></circle>
  <circle cx="91" cy="91" r="1.5"></circle>
  <circle cx="91" cy="106" r="1.5"></circle>
  <circle cx="91" cy="121" r="1.5"></circle>
  <circle cx="106" cy="1" r="1.5"></circle>
  <circle cx="106" cy="16" r="1.5"></circle>
  <circle cx="106" cy="31" r="1.5"></circle>
  <circle cx="106" cy="46" r="1.5"></circle>
  <circle cx="106" cy="61" r="1.5"></circle>
  <circle cx="106" cy="76" r="1.5"></circle>
  <circle cx="106" cy="91" r="1.5"></circle>
  <circle cx="106" cy="106" r="1.5"></circle>
  <circle cx="106" cy="121" r="1.5"></circle>
  <circle cx="121" cy="1" r="1.5"></circle>
  <circle cx="121" cy="16" r="1.5"></circle>
  <circle cx="121" cy="31" r="1.5"></circle>
  <circle cx="121" cy="46" r="1.5"></circle>
  <circle cx="121" cy="61" r="1.5"></circle>
  <circle cx="121" cy="76" r="1.5"></circle>
  <circle cx="121" cy="91" r="1.5"></circle>
  <circle cx="121" cy="106" r="1.5"></circle>
  <circle cx="121" cy="121" r="1.5"></circle>
</svg>
